<svg width="171" height="57" viewBox="0 0 171 57" fill="none" xmlns="http://www.w3.org/2000/svg">
<path d="M157.129 0.000185249H13.7744C13.2518 0.000185249 12.7356 0.000185249 12.2144 0.00303524C11.7781 0.00588523 11.3453 0.0141645 10.9049 0.0211327C9.94803 0.0323927 8.99341 0.116574 8.04934 0.272944C7.1066 0.432718 6.19339 0.733938 5.3406 1.16642C4.48885 1.60255 3.71058 2.16927 3.03403 2.846C2.35392 3.52083 1.787 4.30084 1.35507 5.15605C0.921943 6.00955 0.621611 6.92415 0.464448 7.86827C0.30579 8.8112 0.220415 9.765 0.209089 10.7211C0.195865 11.158 0.194468 11.5964 0.1875 12.0333V44.971C0.194468 45.4135 0.195865 45.8421 0.209089 46.2847C0.220419 47.2408 0.305794 48.1946 0.464448 49.1374C0.621177 50.0821 0.921527 50.9972 1.35507 51.8511C1.78681 52.7035 2.35381 53.4804 3.03403 54.1514C3.70802 54.8312 4.48679 55.3983 5.3406 55.8311C6.19338 56.2647 7.10649 56.5677 8.04934 56.73C8.99357 56.8851 9.94809 56.9693 10.9049 56.9819C11.3453 56.9916 11.7781 56.9972 12.2144 56.9972C12.7355 57 13.2519 57 13.7744 57H157.129C157.641 57 158.162 57 158.674 56.9972C159.108 56.9972 159.553 56.9916 159.987 56.9819C160.942 56.97 161.895 56.8857 162.837 56.73C163.783 56.5666 164.7 56.2637 165.557 55.8311C166.41 55.398 167.188 54.8309 167.861 54.1514C168.54 53.4777 169.108 52.7014 169.545 51.8511C169.975 50.9966 170.273 50.0816 170.427 49.1374C170.586 48.1944 170.674 47.2409 170.692 46.2847C170.697 45.8421 170.697 45.4135 170.697 44.971C170.708 44.4533 170.708 43.9385 170.708 43.4124V13.5891C170.708 13.0673 170.708 12.5496 170.697 12.0333C170.697 11.5964 170.697 11.158 170.692 10.7211C170.674 9.76486 170.586 8.81127 170.427 7.86821C170.272 6.92464 169.975 6.01011 169.545 5.15599C168.665 3.44183 167.27 2.04651 165.557 1.16629C164.7 0.734866 163.783 0.433726 162.837 0.272815C161.895 0.115756 160.943 0.0315462 159.987 0.0209332C159.553 0.0139792 159.108 0.00562873 158.674 0.00284999C158.162 0 157.641 0 157.129 0V0.000185249Z" fill="black"/>
<path d="M12.2214 55.7531C11.7873 55.7531 11.3636 55.7476 10.9328 55.7379C10.0405 55.7263 9.15021 55.6486 8.26932 55.5055C7.44794 55.364 6.65225 55.1009 5.90848 54.7247C5.17153 54.3517 4.49937 53.8626 3.91776 53.2761C3.32773 52.6965 2.8365 52.0243 2.46354 51.2861C2.08647 50.5431 1.82551 49.7466 1.68976 48.9246C1.54317 48.0412 1.46385 47.148 1.4525 46.2527C1.44347 45.9522 1.43164 44.9515 1.43164 44.9515V12.0333C1.43164 12.0333 1.44424 11.0481 1.45257 10.7586C1.46344 9.8647 1.54229 8.9729 1.68845 8.09094C1.82445 7.26661 2.08561 6.4679 2.46288 5.72245C2.83447 4.98475 3.32297 4.31204 3.90945 3.73038C4.49527 3.1432 5.16958 2.65155 5.90778 2.27337C6.64984 1.89843 7.44403 1.63714 8.26375 1.49825C9.14753 1.35371 10.0409 1.27556 10.9363 1.26447L12.2221 1.24707H158.667L159.968 1.26517C160.855 1.27571 161.741 1.35316 162.616 1.49686C163.444 1.63748 164.247 1.9006 164.997 2.27754C166.476 3.03969 167.679 4.24549 168.439 5.72593C168.81 6.46623 169.067 7.25842 169.201 8.07563C169.349 8.96483 169.432 9.86365 169.449 10.7649C169.453 11.1685 169.453 11.6019 169.453 12.0333C169.464 12.5677 169.464 13.0763 169.464 13.5891V43.4124C169.464 43.9301 169.464 44.4353 169.453 44.9446C169.453 45.408 169.453 45.8325 169.448 46.2694C169.431 47.1545 169.349 48.0373 169.204 48.9106C169.071 49.7386 168.811 50.5412 168.434 51.2903C168.059 52.0205 167.57 52.6869 166.987 53.265C166.405 53.8546 165.732 54.3466 164.993 54.722C164.245 55.1011 163.443 55.3652 162.616 55.5055C161.735 55.6493 160.845 55.727 159.953 55.7379C159.535 55.7476 159.098 55.7531 158.674 55.7531L157.129 55.756L12.2214 55.7531Z" fill="white"/>
<path d="M35.8092 28.3425C35.8251 27.1056 36.1536 25.8929 36.7642 24.8172C37.3748 23.7414 38.2475 22.8376 39.3012 22.1897C38.6318 21.2337 37.7487 20.4469 36.7221 19.8919C35.6954 19.3369 34.5535 19.0289 33.387 18.9924C30.8986 18.7312 28.4862 20.4814 27.2181 20.4814C25.9256 20.4814 23.9733 19.0183 21.8709 19.0616C20.511 19.1055 19.1858 19.501 18.0242 20.2094C16.8626 20.9178 15.9043 21.915 15.2427 23.1039C12.3769 28.0657 14.5145 35.358 17.2598 39.3688C18.6333 41.3327 20.2386 43.5265 22.339 43.4487C24.3945 43.3635 25.1621 42.1381 27.6432 42.1381C30.1012 42.1381 30.8214 43.4487 32.9645 43.3993C35.17 43.3635 36.5596 41.4266 37.885 39.444C38.8719 38.0446 39.6313 36.498 40.135 34.8614C38.8537 34.3194 37.7602 33.4123 36.9909 32.253C36.2217 31.0938 35.8107 29.7337 35.8092 28.3425Z" fill="black"/>
<path d="M31.7611 16.3547C32.9636 14.9111 33.5561 13.0555 33.4126 11.1821C31.5754 11.3751 29.8783 12.2532 28.6595 13.6414C28.0636 14.3196 27.6072 15.1086 27.3164 15.9633C27.0256 16.818 26.9061 17.7216 26.9647 18.6225C27.8836 18.6319 28.7928 18.4328 29.6236 18.0399C30.4544 17.6471 31.1852 17.0709 31.7611 16.3547V16.3547Z" fill="black"/>
<path d="M60.4679 38.6739H53.7229L52.103 43.4568H49.2461L55.6349 25.7612H58.6032L64.992 43.4568H62.0864L60.4679 38.6739ZM54.4214 36.4668H59.768L57.1323 28.7045H57.0585L54.4214 36.4668Z" fill="black"/>
<path d="M78.7896 37.0073C78.7896 41.0165 76.6437 43.5923 73.4055 43.5923C72.5852 43.6352 71.7694 43.4463 71.0515 43.0471C70.3336 42.6479 69.7426 42.0546 69.3462 41.3351H69.2849V47.7253H66.6367V30.5558H69.2V32.7017H69.2487C69.6634 31.9857 70.2643 31.3954 70.9877 30.9938C71.7111 30.5922 72.5298 30.3942 73.3567 30.4208C76.6312 30.4208 78.7896 33.0092 78.7896 37.0073ZM76.0676 37.0073C76.0676 34.3953 74.7178 32.678 72.6582 32.678C70.6348 32.678 69.2738 34.4314 69.2738 37.0073C69.2738 39.6068 70.6348 41.3477 72.6582 41.3477C74.7178 41.3477 76.0675 39.643 76.0675 37.0073H76.0676Z" fill="black"/>
<path d="M92.9905 37.0073C92.9905 41.0165 90.8439 43.5923 87.6057 43.5923C86.7854 43.6352 85.9696 43.4463 85.2517 43.0471C84.5338 42.6479 83.9428 42.0546 83.5464 41.3351H83.4851V47.7253H80.8369V30.5558H83.4002V32.7017H83.4489C83.8636 31.9857 84.4645 31.3954 85.1879 30.9938C85.9113 30.5922 86.73 30.3942 87.5569 30.4208C90.8314 30.4208 92.9905 33.0092 92.9905 37.0073ZM90.2678 37.0073C90.2678 34.3953 88.918 32.678 86.8584 32.678C84.835 32.678 83.474 34.4314 83.474 37.0073C83.474 39.6068 84.835 41.3477 86.8584 41.3477C88.918 41.3477 90.2678 39.643 90.2678 37.0073V37.0073Z" fill="black"/>
<path d="M102.373 38.5265C102.569 40.2813 104.274 41.4335 106.603 41.4335C108.836 41.4335 110.441 40.2813 110.441 38.699C110.441 37.3255 109.473 36.5031 107.18 35.9395L104.886 35.387C101.637 34.6022 100.128 33.0825 100.128 30.6166C100.128 27.5634 102.789 25.4663 106.566 25.4663C110.307 25.4663 112.87 27.5634 112.956 30.6166H110.283C110.123 28.8507 108.663 27.7847 106.53 27.7847C104.396 27.7847 102.937 28.8632 102.937 30.4329C102.937 31.684 103.869 32.4201 106.15 32.9837L108.099 33.4624C111.73 34.321 113.237 35.7794 113.237 38.3678C113.237 41.6784 110.601 43.7518 106.407 43.7518C102.483 43.7518 99.8333 41.7271 99.6621 38.5264L102.373 38.5265Z" fill="black"/>
<path d="M118.956 27.5024V30.5556H121.409V32.6527H118.956V39.7652C118.956 40.8701 119.447 41.385 120.525 41.385C120.817 41.3799 121.107 41.3595 121.396 41.3237V43.4084C120.912 43.499 120.419 43.54 119.925 43.5308C117.313 43.5308 116.295 42.5497 116.295 40.0476V32.6527H114.419V30.5556H116.295V27.5024H118.956Z" fill="black"/>
<path d="M122.829 37.0071C122.829 32.9478 125.22 30.397 128.948 30.397C132.689 30.397 135.068 32.9477 135.068 37.0071C135.068 41.0775 132.701 43.6171 128.948 43.6171C125.196 43.6171 122.829 41.0775 122.829 37.0071ZM132.37 37.0071C132.37 34.2225 131.094 32.579 128.948 32.579C126.802 32.579 125.526 34.235 125.526 37.0071C125.526 39.8028 126.802 41.4337 128.948 41.4337C131.094 41.4337 132.37 39.8028 132.37 37.0071H132.37Z" fill="black"/>
<path d="M137.251 30.5557H139.777V32.7516H139.838C140.009 32.0658 140.411 31.4597 140.976 31.0352C141.541 30.6107 142.235 30.3937 142.941 30.4207C143.246 30.4196 143.551 30.4528 143.849 30.5195V32.9966C143.463 32.8788 143.061 32.8248 142.659 32.8365C142.274 32.8209 141.89 32.8887 141.534 33.0354C141.178 33.182 140.858 33.4039 140.596 33.6859C140.334 33.9679 140.136 34.3033 140.016 34.669C139.895 35.0348 139.856 35.4222 139.899 35.8048V43.4572H137.251L137.251 30.5557Z" fill="black"/>
<path d="M156.06 39.6678C155.704 42.0098 153.423 43.6171 150.505 43.6171C146.751 43.6171 144.422 41.1025 144.422 37.0683C144.422 33.0215 146.764 30.397 150.393 30.397C153.963 30.397 156.207 32.849 156.207 36.7607V37.6681H147.095V37.8281C147.053 38.3029 147.113 38.7812 147.27 39.2313C147.427 39.6814 147.677 40.0929 148.006 40.4385C148.334 40.7841 148.732 41.056 149.173 41.236C149.615 41.4159 150.089 41.5 150.566 41.4824C151.192 41.5411 151.82 41.3961 152.356 41.0692C152.893 40.7422 153.31 40.2507 153.545 39.6678L156.06 39.6678ZM147.108 35.8172H153.558C153.581 35.3903 153.517 34.9631 153.368 34.5624C153.218 34.1616 152.988 33.7961 152.691 33.4886C152.394 33.1811 152.036 32.9384 151.641 32.7757C151.245 32.6129 150.821 32.5336 150.393 32.5428C149.962 32.5402 149.534 32.6231 149.135 32.7866C148.736 32.9501 148.374 33.191 148.068 33.4955C147.763 33.7999 147.521 34.1618 147.356 34.5603C147.191 34.9588 147.107 35.386 147.108 35.8173V35.8172Z" fill="black"/>
<path d="M50.0625 20.3704V11.8671H52.5617C53.2945 11.8671 53.9516 12.0267 54.5329 12.346C55.1142 12.6614 55.5666 13.115 55.89 13.7068C56.2175 14.2986 56.3812 14.9721 56.3812 15.7274V16.51C56.3812 17.2692 56.2195 17.9428 55.8961 18.5307C55.5727 19.1186 55.1162 19.5722 54.5267 19.8915C53.9413 20.2107 53.2679 20.3704 52.5065 20.3704H50.0625ZM50.8178 12.4803V19.763H52.5126C53.4542 19.763 54.2095 19.4671 54.7785 18.8753C55.3475 18.2796 55.6321 17.4756 55.6321 16.4633V15.7158C55.6321 14.7385 55.3516 13.9559 54.7908 13.368C54.2299 12.7801 53.491 12.4842 52.574 12.4803H50.8178Z" fill="black"/>
<path d="M58.9541 20.3704H58.2173V14.0513H58.9541V20.3704ZM58.0883 12.2234C58.0883 12.091 58.1333 11.98 58.2234 11.8905C58.3135 11.797 58.4363 11.7503 58.5918 11.7503C58.7474 11.7503 58.8702 11.797 58.9603 11.8905C59.0544 11.98 59.1015 12.091 59.1015 12.2234C59.1015 12.3557 59.0544 12.4667 58.9603 12.5563C58.8702 12.6458 58.7474 12.6906 58.5918 12.6906C58.4363 12.6906 58.3135 12.6458 58.2234 12.5563C58.1333 12.4667 58.0883 12.3557 58.0883 12.2234Z" fill="black"/>
<path d="M64.9351 18.7643C64.9351 18.4178 64.7877 18.1394 64.493 17.9292C64.2023 17.7189 63.7623 17.5554 63.1728 17.4386C62.5833 17.3179 62.1248 17.1816 61.7973 17.0298C61.4738 16.8741 61.2323 16.6852 61.0727 16.4633C60.9171 16.2414 60.8393 15.9727 60.8393 15.6574C60.8393 15.159 61.0583 14.7483 61.4964 14.4251C61.9344 14.098 62.4952 13.9345 63.1789 13.9345C63.9199 13.9345 64.5135 14.1097 64.9597 14.4601C65.41 14.8067 65.6351 15.2602 65.6351 15.8209H64.8983C64.8983 15.451 64.7345 15.1434 64.407 14.8981C64.0836 14.6529 63.6742 14.5302 63.1789 14.5302C62.6958 14.5302 62.3069 14.6334 62.0122 14.8397C61.7215 15.0422 61.5762 15.307 61.5762 15.634C61.5762 15.9494 61.697 16.1947 61.9385 16.3699C62.1841 16.5412 62.6283 16.6989 63.271 16.8429C63.9178 16.987 64.4009 17.1408 64.7202 17.3043C65.0436 17.4678 65.2831 17.6644 65.4386 17.8941C65.5942 18.1239 65.672 18.4022 65.672 18.7293C65.672 19.2627 65.4448 19.689 64.9904 20.0083C64.5401 20.3275 63.9506 20.4872 63.2219 20.4872C62.4482 20.4872 61.8198 20.31 61.3367 19.9557C60.8577 19.5975 60.6182 19.1459 60.6182 18.6008H61.3551C61.3838 19.0096 61.5639 19.3289 61.8955 19.5586C62.2312 19.7844 62.6733 19.8973 63.2219 19.8973C63.7336 19.8973 64.1471 19.7902 64.4623 19.5761C64.7775 19.362 64.9351 19.0914 64.9351 18.7643Z" fill="black"/>
<path d="M72.6723 17.2751C72.6723 18.2601 72.4431 19.0427 71.9846 19.6228C71.5261 20.1991 70.912 20.4872 70.1424 20.4872C69.2336 20.4872 68.5376 20.1835 68.0546 19.5761V22.7999H67.3238V14.0513H68.0054L68.0423 14.9449C68.5212 14.2713 69.2151 13.9345 70.1239 13.9345C70.9181 13.9345 71.5404 14.2207 71.9907 14.793C72.4451 15.3654 72.6723 16.1596 72.6723 17.1758V17.2751ZM71.9354 17.1524C71.9354 16.3465 71.7615 15.7099 71.4135 15.2427C71.0655 14.7755 70.5804 14.5419 69.9582 14.5419C69.5078 14.5419 69.121 14.6451 68.7976 14.8514C68.4742 15.0578 68.2265 15.3576 68.0546 15.7508V18.7818C68.2306 19.1439 68.4824 19.4204 68.8099 19.6111C69.1374 19.8019 69.5242 19.8973 69.9704 19.8973C70.5886 19.8973 71.0696 19.6637 71.4135 19.1965C71.7615 18.7254 71.9354 18.044 71.9354 17.1524Z" fill="black"/>
<path d="M73.9004 17.1174C73.9004 16.51 74.0233 15.963 74.2689 15.4763C74.5186 14.9896 74.8686 14.612 75.3189 14.3433C75.7733 14.0708 76.2871 13.9345 76.8602 13.9345C77.7445 13.9345 78.4609 14.2304 79.0094 14.8222C79.558 15.4101 79.8323 16.1908 79.8323 17.1641V17.3101C79.8323 17.9214 79.7074 18.4723 79.4577 18.9629C79.2121 19.4496 78.8641 19.8253 78.4138 20.09C77.9635 20.3548 77.4497 20.4872 76.8725 20.4872C75.9923 20.4872 75.2759 20.1932 74.7233 19.6053C74.1747 19.0135 73.9004 18.2309 73.9004 17.2576V17.1174ZM74.6373 17.3101C74.6373 18.0655 74.842 18.6865 75.2514 19.1731C75.6648 19.6559 76.2052 19.8973 76.8725 19.8973C77.5357 19.8973 78.072 19.6559 78.4814 19.1731C78.8948 18.6865 79.1016 18.046 79.1016 17.2517V17.1174C79.1016 16.6346 79.0074 16.1927 78.8191 15.7917C78.6308 15.3907 78.3667 15.0811 78.0269 14.8631C77.6872 14.6412 77.2983 14.5302 76.8602 14.5302C76.2052 14.5302 75.671 14.7755 75.2575 15.2661C74.844 15.7528 74.6373 16.3913 74.6373 17.1816V17.3101Z" fill="black"/>
<path d="M82.0552 14.0513L82.0798 15.1318C82.3295 14.7424 82.6406 14.4465 83.0131 14.2441C83.3857 14.0377 83.7971 13.9345 84.2474 13.9345C84.9597 13.9345 85.4899 14.1253 85.8378 14.5069C86.1858 14.8884 86.3618 15.4607 86.3659 16.2239V20.3704H85.6352V16.218C85.6311 15.6535 85.5042 15.233 85.2545 14.9566C85.0088 14.6801 84.6138 14.5419 84.0693 14.5419C83.6149 14.5419 83.2117 14.6782 82.8596 14.9507C82.5117 15.2194 82.2537 15.5834 82.0859 16.0428V20.3704H81.3552V14.0513H82.0552Z" fill="black"/>
<path d="M89.0801 20.3704H88.3432V14.0513H89.0801V20.3704ZM89.4608 11.47H90.3512L88.9327 13.1052H88.2879L89.4608 11.47Z" fill="black"/>
<path d="M93.139 19.4067L95.1593 14.0513H95.9146L93.4338 20.3704H92.8382L90.3451 14.0513H91.1004L93.139 19.4067Z" fill="black"/>
<path d="M99.6113 20.4872C99.0463 20.4872 98.5346 20.3548 98.0761 20.09C97.6217 19.8253 97.2676 19.4574 97.0138 18.9863C96.76 18.5113 96.6331 17.9798 96.6331 17.3919V17.1408C96.6331 16.5334 96.7559 15.9864 97.0015 15.4997C97.2512 15.013 97.5971 14.6314 98.0393 14.355C98.4814 14.0747 98.9604 13.9345 99.4762 13.9345C100.283 13.9345 100.921 14.1973 101.392 14.7229C101.867 15.2447 102.104 15.9591 102.104 16.8663V17.2576H97.3638V17.3919C97.3638 18.1083 97.5787 18.7059 98.0086 19.1848C98.4425 19.6598 98.987 19.8973 99.642 19.8973C100.035 19.8973 100.381 19.8292 100.68 19.6929C100.983 19.5566 101.257 19.3386 101.503 19.0388L101.963 19.3717C101.423 20.1153 100.639 20.4872 99.6113 20.4872ZM99.4762 14.5302C98.9235 14.5302 98.4568 14.7229 98.0761 15.1084C97.6995 15.4938 97.4702 16.0117 97.3884 16.6619H101.374V16.586C101.353 15.9786 101.171 15.4841 100.827 15.1026C100.483 14.721 100.033 14.5302 99.4762 14.5302Z" fill="black"/>
<path d="M104.358 20.3704H103.621V11.3999H104.358V20.3704Z" fill="black"/>
<path d="M110.118 14.0513L110.142 15.1318C110.392 14.7424 110.703 14.4465 111.076 14.2441C111.448 14.0377 111.86 13.9345 112.31 13.9345C113.022 13.9345 113.553 14.1253 113.901 14.5069C114.248 14.8884 114.425 15.4607 114.429 16.2239V20.3704H113.698V16.218C113.694 15.6535 113.567 15.233 113.317 14.9566C113.072 14.6801 112.676 14.5419 112.132 14.5419C111.678 14.5419 111.274 14.6782 110.922 14.9507C110.574 15.2194 110.316 15.5834 110.149 16.0428V20.3704H109.418V14.0513H110.118Z" fill="black"/>
<path d="M120.526 20.3704C120.453 20.1718 120.406 19.8778 120.385 19.4885C120.127 19.8078 119.798 20.055 119.396 20.2302C118.999 20.4015 118.578 20.4872 118.131 20.4872C117.493 20.4872 116.975 20.3178 116.578 19.9791C116.185 19.6403 115.988 19.2121 115.988 18.6942C115.988 18.0791 116.256 17.5924 116.793 17.2342C117.333 16.876 118.084 16.6969 119.046 16.6969H120.379V15.9786C120.379 15.5269 120.232 15.1726 119.937 14.9157C119.646 14.6548 119.22 14.5244 118.66 14.5244C118.148 14.5244 117.724 14.649 117.388 14.8981C117.053 15.1473 116.885 15.4471 116.885 15.7975L116.148 15.7917C116.148 15.2894 116.394 14.8553 116.885 14.4893C117.376 14.1195 117.98 13.9345 118.696 13.9345C119.437 13.9345 120.021 14.1117 120.446 14.466C120.876 14.8164 121.097 15.307 121.11 15.9377V18.9278C121.11 19.5391 121.177 19.9966 121.312 20.3003V20.3704H120.526ZM118.217 19.8681C118.709 19.8681 119.147 19.7552 119.531 19.5294C119.92 19.3036 120.203 19.0018 120.379 18.6242V17.2342H119.065C118.332 17.242 117.759 17.3705 117.345 17.6197C116.932 17.8649 116.725 18.2037 116.725 18.6358C116.725 18.9901 116.862 19.2841 117.137 19.5177C117.415 19.7513 117.775 19.8681 118.217 19.8681Z" fill="black"/>
</svg>
