<?xml version="1.0" encoding="utf-8"?>
<!-- Generator: Adobe Illustrator 25.0.0, SVG Export Plug-In . SVG Version: 6.00 Build 0)  -->
<svg version="1.1" id="Camada_1" xmlns="http://www.w3.org/2000/svg" xmlns:xlink="http://www.w3.org/1999/xlink" x="0px" y="0px"
	 viewBox="0 0 394.32 295.74" style="enable-background:new 0 0 394.32 295.74;" xml:space="preserve">
<style type="text/css">
	.st0{fill:#DE761C;}
	.st1{fill-rule:evenodd;clip-rule:evenodd;fill:#FAA921;}
	.st2{fill-rule:evenodd;clip-rule:evenodd;fill:#5AB947;}
	.st3{fill:#0094D9;}
	.st4{fill-rule:evenodd;clip-rule:evenodd;fill:#4D4D4F;}
	.st5{fill:#4A4C4E;}
	.st6{fill:none;stroke:#4C4D4F;stroke-width:0.75;stroke-miterlimit:10;}
	.st7{fill:#FFFFFF;}
</style>
<path class="st0" d="M369.85,293.26H5.21V148.82h383.89V274C389.11,284.63,380.48,293.26,369.85,293.26"/>
<path class="st1" d="M125.37,110.8h-4.12c0,0-10.67,1.19-17.09-8.07C101.14,98.04,70.5,52.4,70.5,52.4L49.13,110.8H35.15
	l24.11-68.51h21.06L125.37,110.8z"/>
<path class="st2" d="M55.63,110.8h4.13c0,0,10.68,1.19,17.1-8.07c3.03-4.7,33.65-50.33,33.65-50.33l21.38,58.39h13.99l-24.13-68.51
	H100.7L55.63,110.8z"/>
<polygon class="st3" points="90.51,82.31 82.37,70.15 90.51,57.78 98.65,70.15 "/>
<path class="st4" d="M189.61,81.04c-0.77,0-1.4,0.01-1.87,0.05c-0.48,0-0.86,0.07-1.13,0.15c-0.27,0.07-0.46,0.2-0.58,0.37
	c-0.13,0.16-0.23,0.36-0.32,0.62l-9.17,26.35c-0.19,0.54-0.3,0.97-0.34,1.28c-0.05,0.33,0,0.58,0.15,0.77
	c0.16,0.16,0.43,0.27,0.82,0.33c0.4,0.03,0.95,0.06,1.66,0.06c0.66,0,1.18-0.01,1.58-0.05c0.41-0.03,0.72-0.08,0.94-0.16
	c0.22-0.08,0.39-0.21,0.49-0.35c0.1-0.15,0.19-0.33,0.26-0.55l1.87-5.8h11.16l2,5.96c0.05,0.21,0.13,0.36,0.23,0.48
	c0.09,0.13,0.26,0.21,0.48,0.29c0.22,0.08,0.57,0.11,0.99,0.12c0.45,0.04,1.05,0.05,1.84,0.05c0.76,0,1.35-0.03,1.77-0.06
	c0.43-0.03,0.72-0.13,0.88-0.28c0.17-0.16,0.25-0.42,0.19-0.73c-0.05-0.33-0.16-0.76-0.35-1.31l-9.18-26.35
	c-0.09-0.29-0.2-0.51-0.33-0.68c-0.13-0.17-0.34-0.3-0.65-0.37c-0.29-0.08-0.7-0.15-1.23-0.15
	C191.24,81.06,190.51,81.04,189.61,81.04 M185.31,99.47l4.22-12.62l4.2,12.62H185.31z M232.47,81.09c-0.56,0-1,0.02-1.36,0.07
	c-0.35,0.02-0.64,0.08-0.84,0.19c-0.23,0.09-0.38,0.19-0.46,0.32c-0.1,0.12-0.14,0.26-0.14,0.4v13.95c0,1.06,0,2.16,0.02,3.34
	c0.02,1.15,0.07,2.28,0.09,3.34c-0.28-0.61-0.56-1.22-0.84-1.83l-0.9-1.86c-0.3-0.65-0.63-1.28-0.97-1.91l-0.98-1.96l-5.79-10.86
	c-0.29-0.59-0.57-1.08-0.84-1.48c-0.28-0.42-0.58-0.74-0.9-0.97c-0.31-0.24-0.66-0.39-1.06-0.47c-0.39-0.11-0.88-0.17-1.46-0.17
	h-3.23c-0.62,0-1.14,0.19-1.57,0.54c-0.41,0.36-0.62,0.89-0.62,1.62v26.69c0,0.16,0.03,0.29,0.11,0.42
	c0.08,0.13,0.22,0.23,0.42,0.33c0.19,0.08,0.49,0.13,0.82,0.19c0.36,0.03,0.8,0.06,1.33,0.06c0.55,0,1-0.03,1.36-0.06
	c0.35-0.06,0.63-0.11,0.84-0.19c0.2-0.1,0.35-0.2,0.43-0.33c0.09-0.12,0.13-0.26,0.13-0.42V94.5c0-1.16-0.01-2.3-0.04-3.38
	c-0.03-1.1-0.07-2.19-0.09-3.3c0.35,0.9,0.75,1.83,1.19,2.8c0.44,0.95,0.88,1.84,1.32,2.66l7.37,13.89c0.4,0.76,0.74,1.39,1.04,1.89
	c0.31,0.47,0.63,0.85,0.95,1.14c0.34,0.28,0.7,0.47,1.07,0.58c0.4,0.1,0.87,0.16,1.41,0.16h2.57c0.29,0,0.56-0.04,0.84-0.12
	c0.3-0.08,0.54-0.23,0.74-0.41c0.21-0.18,0.38-0.42,0.5-0.7c0.13-0.26,0.19-0.58,0.19-0.93V82.06c0-0.14-0.04-0.28-0.11-0.4
	c-0.09-0.13-0.22-0.23-0.42-0.32c-0.19-0.1-0.46-0.16-0.8-0.19C233.42,81.11,232.98,81.09,232.47,81.09 M254.4,81.18h-7.47
	c-0.5,0-0.93,0.16-1.28,0.45c-0.33,0.29-0.51,0.77-0.51,1.44v25.91c0,0.67,0.18,1.16,0.51,1.46c0.35,0.3,0.78,0.44,1.28,0.44h7.91
	c1.18,0,2.27-0.07,3.24-0.21c0.97-0.15,1.9-0.38,2.75-0.69c0.86-0.3,1.65-0.7,2.35-1.17c0.71-0.48,1.34-1.04,1.83-1.69
	c0.53-0.67,0.93-1.41,1.21-2.28c0.3-0.85,0.45-1.81,0.45-2.87c0-1.02-0.16-1.92-0.47-2.74c-0.29-0.81-0.72-1.5-1.26-2.11
	c-0.51-0.6-1.13-1.11-1.86-1.49c-0.7-0.38-1.46-0.65-2.32-0.81c0.66-0.23,1.24-0.56,1.75-0.97c0.52-0.39,0.96-0.85,1.31-1.37
	c0.36-0.52,0.62-1.1,0.81-1.71c0.19-0.65,0.28-1.32,0.28-2.05c0-1.29-0.24-2.4-0.69-3.35c-0.47-0.94-1.14-1.73-2-2.35
	c-0.85-0.63-1.92-1.08-3.19-1.4C257.77,81.34,256.22,81.18,254.4,81.18 M251.07,93.41v-7.7h3.06c0.93,0,1.68,0.08,2.22,0.25
	c0.57,0.17,1.03,0.41,1.4,0.74c0.37,0.3,0.64,0.69,0.82,1.16c0.17,0.47,0.27,1.01,0.27,1.61c0,0.53-0.08,1.04-0.25,1.54
	c-0.17,0.47-0.43,0.9-0.78,1.26c-0.34,0.36-0.77,0.63-1.29,0.84c-0.53,0.21-1.22,0.3-2.09,0.3H251.07z M251.07,106.27v-8.44h3.58
	c1.1,0,1.99,0.11,2.68,0.3c0.69,0.19,1.25,0.47,1.7,0.84c0.44,0.38,0.77,0.84,0.99,1.38c0.24,0.53,0.35,1.14,0.35,1.84
	c0,0.66-0.11,1.24-0.36,1.76c-0.22,0.5-0.57,0.94-0.98,1.29c-0.41,0.33-0.92,0.59-1.5,0.78c-0.57,0.17-1.26,0.25-2.11,0.25H251.07z
	 M277.64,81.04c-0.59,0-1.06,0.02-1.44,0.07c-0.39,0.05-0.71,0.11-0.94,0.18c-0.23,0.08-0.39,0.18-0.5,0.29
	c-0.09,0.13-0.14,0.27-0.14,0.42v28.06c0,0.15,0.05,0.29,0.14,0.41c0.11,0.13,0.27,0.23,0.5,0.31c0.24,0.08,0.54,0.13,0.91,0.19
	c0.4,0.03,0.89,0.06,1.47,0.06c0.59,0,1.08-0.03,1.46-0.06c0.39-0.06,0.7-0.11,0.92-0.19c0.24-0.08,0.4-0.18,0.48-0.31
	c0.12-0.12,0.17-0.26,0.17-0.41V82c0-0.15-0.05-0.29-0.17-0.42c-0.08-0.11-0.24-0.22-0.48-0.29c-0.22-0.07-0.53-0.13-0.92-0.18
	C278.72,81.06,278.23,81.04,277.64,81.04 M322.82,81.18h-4.05c-0.57,0-1.07,0.06-1.5,0.19c-0.42,0.11-0.8,0.3-1.12,0.57
	c-0.32,0.28-0.59,0.63-0.83,1.08c-0.23,0.44-0.46,0.99-0.63,1.63l-6.76,17.64l-6.43-17.7c-0.18-0.64-0.4-1.17-0.64-1.6
	c-0.24-0.44-0.55-0.8-0.92-1.06c-0.36-0.28-0.81-0.47-1.3-0.57c-0.51-0.12-1.11-0.19-1.81-0.19h-3.96c-0.68,0-1.23,0.21-1.64,0.62
	c-0.42,0.42-0.63,1.01-0.63,1.79v26.48c0,0.15,0.04,0.29,0.1,0.41c0.11,0.13,0.26,0.23,0.47,0.31c0.24,0.08,0.53,0.13,0.89,0.19
	c0.37,0.03,0.84,0.06,1.38,0.06c0.58,0,1.03-0.03,1.38-0.06c0.36-0.06,0.66-0.11,0.89-0.19c0.23-0.08,0.4-0.18,0.47-0.31
	c0.09-0.12,0.14-0.26,0.14-0.41l0.05-24.19l8.3,24.16c0.05,0.18,0.13,0.32,0.27,0.44c0.14,0.13,0.32,0.24,0.55,0.32
	c0.25,0.08,0.56,0.14,0.92,0.17c0.36,0.03,0.8,0.06,1.33,0.06c0.53,0,0.96-0.01,1.33-0.05c0.37-0.01,0.67-0.05,0.89-0.13
	c0.26-0.09,0.44-0.18,0.59-0.31c0.13-0.13,0.23-0.29,0.3-0.51l8.66-24.16v24.19c0,0.15,0.04,0.29,0.13,0.41
	c0.09,0.13,0.24,0.23,0.46,0.31c0.22,0.08,0.5,0.13,0.86,0.19c0.37,0.03,0.83,0.06,1.38,0.06c0.57,0,1.04-0.03,1.4-0.06
	c0.37-0.06,0.65-0.11,0.86-0.19c0.23-0.08,0.38-0.18,0.46-0.31c0.11-0.12,0.15-0.26,0.15-0.41V83.59c-0.01-0.38-0.06-0.71-0.17-1
	c-0.1-0.31-0.24-0.57-0.44-0.77c-0.18-0.22-0.42-0.38-0.73-0.47C323.59,81.23,323.24,81.18,322.82,81.18 M345.58,81.04
	c-0.79,0-1.4,0.01-1.89,0.05c-0.46,0-0.83,0.07-1.11,0.15c-0.26,0.07-0.46,0.2-0.57,0.37c-0.13,0.16-0.23,0.36-0.32,0.62
	l-9.17,26.35c-0.19,0.54-0.3,0.97-0.34,1.28c-0.04,0.33,0,0.58,0.15,0.77c0.16,0.16,0.44,0.27,0.84,0.33
	c0.4,0.03,0.94,0.06,1.66,0.06c0.64,0,1.18-0.01,1.58-0.05c0.41-0.03,0.73-0.08,0.94-0.16c0.23-0.08,0.38-0.21,0.48-0.35
	c0.11-0.15,0.19-0.33,0.26-0.55l1.87-5.8h11.17l1.99,5.96c0.07,0.21,0.14,0.36,0.23,0.48c0.1,0.13,0.26,0.21,0.47,0.29
	c0.23,0.08,0.57,0.11,1,0.12c0.44,0.04,1.06,0.05,1.83,0.05c0.76,0,1.34-0.03,1.76-0.06c0.43-0.03,0.74-0.13,0.89-0.28
	c0.18-0.16,0.24-0.42,0.18-0.73c-0.04-0.33-0.15-0.76-0.32-1.31l-9.2-26.35c-0.09-0.29-0.2-0.51-0.34-0.68
	c-0.12-0.17-0.33-0.3-0.63-0.37c-0.29-0.08-0.72-0.15-1.25-0.15C347.2,81.06,346.48,81.04,345.58,81.04 M341.28,99.47l4.23-12.62
	l4.19,12.62H341.28z"/>
<path class="st5" d="M192.2,62.93h-2.78l-1.64-5.28h-7.21l-1.61,5.28h-2.78l6.27-20.07h3.46L192.2,62.93z M181.1,55.61h6.15
	l-3.07-9.73h-0.03L181.1,55.61z"/>
<path class="st5" d="M205.83,48.28v14.65h-2.2l-0.15-1.79h-0.06c-1.2,1.49-2.78,2.08-4.63,2.08c-2.96,0-4.54-1.82-4.54-4.45V48.28
	h2.35v10.34c0,1.73,1.38,2.69,3.1,2.69c1.7,0,3.78-1.2,3.78-3.43v-9.61H205.83z"/>
<path class="st5" d="M210.29,59.8v-9.64h-2.41v-1.43l2.41-0.44l0.96-4.1h1.38v4.1h4.04v1.87h-4.04v9.49c0,1.2,0.5,1.52,1.61,1.52
	h2.43v1.52c-1.17,0.35-1.85,0.53-2.87,0.53C211,63.22,210.29,61.64,210.29,59.8"/>
<path class="st5" d="M218.5,55.61c0-4.51,1.7-7.62,6.36-7.62c4.69,0,6.39,3.11,6.39,7.62c0,4.54-1.7,7.62-6.39,7.62
	C220.2,63.22,218.5,60.15,218.5,55.61 M220.96,55.61c0,3.19,0.88,5.62,3.9,5.62c3.05,0,3.92-2.43,3.92-5.62
	c0-3.19-0.88-5.62-3.92-5.62C221.84,49.98,220.96,52.42,220.96,55.61"/>
<path class="st5" d="M234.48,62.93V48.29h2.2l0.15,2.46h0.06c0.97-1.93,2.93-2.75,4.77-2.75v2.37h-0.58c-2.64,0-4.25,1.73-4.25,3.78
	v8.79H234.48z"/>
<path class="st5" d="M244.15,62.93V48.29h2.2l0.15,2.46h0.06c0.97-1.93,2.93-2.75,4.77-2.75v2.37h-0.59c-2.63,0-4.24,1.73-4.24,3.78
	v8.79H244.15z"/>
<path class="st5" d="M255.72,56.31c0.06,2.75,1.03,4.86,3.87,4.86h4.83v1.52c-1.85,0.38-3.4,0.53-4.83,0.53
	c-4.66,0-6.36-3.07-6.36-7.62c0-4.51,1.99-7.61,6.71-7.61c3.66,0,5.45,2.17,5.45,4.34c0,1.96-0.88,3.98-4.28,3.98H255.72z
	 M255.75,54.67h4.77c1.96,0,2.52-1.17,2.52-2.26c0-1.2-1.11-2.37-3.16-2.37C257.13,50.04,255.93,52.06,255.75,54.67"/>
<path class="st5" d="M277.7,61.15h-0.06c-1.14,1.49-2.37,2.08-4.16,2.08c-4.07,0-5.59-3.05-5.59-7.58c0-4.51,1.99-7.36,6.47-7.36
	h5.68v13.18c0,4.54-1.7,7.62-6.39,7.62c-1.43,0-2.72-0.15-4.6-0.53v-1.52h4.72c3.05,0,3.92-2.37,3.92-5.33V61.15z M277.7,50.25
	h-3.22c-3.05,0-4.13,2.31-4.13,5.39c0,3.13,0.73,5.65,3.87,5.65c1.7,0,3.49-1.2,3.49-3.46V50.25z"/>
<path class="st5" d="M295.14,48.28v14.65h-2.2l-0.15-1.79h-0.06c-1.2,1.49-2.78,2.08-4.63,2.08c-2.96,0-4.54-1.82-4.54-4.45V48.28
	h2.35v10.34c0,1.73,1.38,2.69,3.1,2.69c1.7,0,3.78-1.2,3.78-3.43v-9.61H295.14z"/>
<path class="st5" d="M298.67,42.42h2.35v17.23c0,1.26,0.29,1.52,2.19,1.52v1.91c-3.95,0.29-4.54-0.73-4.54-3.43V42.42z"/>
<path class="st5" d="M305.7,50.04v-1.52c1.88-0.32,3.72-0.53,5.25-0.53c3.28,0,5.19,1.08,5.19,4.78v10.16h-2.2l-0.15-1.79h-0.06
	c-1.29,1.64-2.64,2.08-4.51,2.08c-2.75,0-4.51-1.7-4.51-4.27c0-3.22,2.19-4.36,4.98-4.36h4.1v-1.7c0-1.82-0.58-2.84-3.05-2.84H305.7
	z M313.79,56.25h-3.57c-2.05,0-3.16,0.85-3.16,2.57c0,1.76,1.35,2.49,3.07,2.49c1.61,0,3.66-1.08,3.66-3.43V56.25z"/>
<path class="st5" d="M324.81,63.17c-3.98-0.35-5.45-3.31-5.45-7.56c0-4.51,1.7-7.62,6.36-7.62c1.43,0,2.55,0.15,4.39,0.53v1.52
	h-4.39c-3.02,0-3.9,2.37-3.9,5.57c0,3.19,0.88,5.57,3.9,5.57h4.39v1.52c-1.7,0.35-2.79,0.5-4.05,0.53v1.2
	c0.97,0.12,2.41,0.71,2.41,2.11c0,1.38-1,2.25-2.84,2.25c-0.68,0-1.29-0.06-2.02-0.26v-0.94h1.73c0.82,0,1.32-0.32,1.32-1
	c0-0.64-0.47-1.2-1.85-1.32V63.17z"/>
<path class="st5" d="M332.88,50.04v-1.52c1.87-0.32,3.72-0.53,5.24-0.53c3.28,0,5.19,1.08,5.19,4.78v10.16h-2.2l-0.15-1.79h-0.06
	c-1.29,1.64-2.64,2.08-4.51,2.08c-2.75,0-4.51-1.7-4.51-4.27c0-3.22,2.2-4.36,4.98-4.36h4.1v-1.7c0-1.82-0.59-2.84-3.05-2.84H332.88
	z M336.45,44.91c-0.82,0-1.64,0.41-2.31,1.05l-0.62-1.32c0.91-1.11,1.82-1.55,2.93-1.55c1.35,0,2.4,0.97,3.37,0.97
	c0.82,0,1.64-0.41,2.32-1.05l0.62,1.32c-0.94,1.11-1.82,1.58-2.93,1.58C338.77,45.91,337.39,44.91,336.45,44.91 M340.96,56.25h-3.58
	c-2.05,0-3.16,0.85-3.16,2.57c0,1.76,1.35,2.49,3.08,2.49c1.61,0,3.66-1.08,3.66-3.43V56.25z"/>
<path class="st5" d="M346.65,55.61c0-4.51,1.7-7.62,6.36-7.62c4.69,0,6.39,3.11,6.39,7.62c0,4.54-1.7,7.62-6.39,7.62
	C348.35,63.22,346.65,60.15,346.65,55.61 M349.11,55.61c0,3.19,0.88,5.62,3.9,5.62c3.05,0,3.92-2.43,3.92-5.62
	c0-3.19-0.88-5.62-3.92-5.62C349.99,49.98,349.11,52.42,349.11,55.61"/>
<path class="st6" d="M369.85,292.63H5.21V24.37c0-10.64,8.62-19.26,19.26-19.26h364.63v268.26
	C389.11,284.01,380.48,292.63,369.85,292.63z"/>
<g>
	<path class="st7" d="M86.82,229.8c-1.24,0.44-3.69,1.17-6.58,1.17c-3.24,0-5.91-0.83-8-2.83c-1.84-1.78-2.99-4.63-2.99-7.97
		c0.03-6.38,4.41-11.05,11.59-11.05c2.48,0,4.41,0.54,5.33,0.98l-0.67,2.26c-1.14-0.51-2.57-0.92-4.73-0.92
		c-5.21,0-8.6,3.24-8.6,8.6c0,5.43,3.27,8.64,8.25,8.64c1.81,0,3.05-0.25,3.69-0.57v-6.38h-4.35v-2.22h7.05V229.8z"/>
	<path class="st7" d="M92.01,223.57c0.06,3.78,2.48,5.34,5.27,5.34c2,0,3.21-0.35,4.26-0.79l0.48,2c-0.98,0.44-2.67,0.95-5.11,0.95
		c-4.73,0-7.56-3.11-7.56-7.75c0-4.64,2.73-8.29,7.21-8.29c5.02,0,6.35,4.41,6.35,7.24c0,0.57-0.06,1.02-0.1,1.3H92.01z
		 M100.2,221.57c0.03-1.78-0.73-4.54-3.87-4.54c-2.83,0-4.06,2.6-4.29,4.54H100.2z"/>
	<path class="st7" d="M105.42,227.89c0.83,0.54,2.28,1.11,3.68,1.11c2.03,0,2.98-1.02,2.98-2.28c0-1.33-0.79-2.06-2.86-2.82
		c-2.76-0.99-4.06-2.51-4.06-4.35c0-2.48,2-4.51,5.3-4.51c1.56,0,2.92,0.44,3.78,0.95l-0.7,2.03c-0.61-0.38-1.72-0.89-3.15-0.89
		c-1.65,0-2.57,0.95-2.57,2.1c0,1.27,0.92,1.84,2.92,2.6c2.67,1.02,4.03,2.35,4.03,4.63c0,2.7-2.09,4.6-5.75,4.6
		c-1.68,0-3.24-0.41-4.32-1.05L105.42,227.89z"/>
	<path class="st7" d="M121.31,210.97v4.41h4v2.13h-4v8.29c0,1.91,0.54,2.99,2.1,2.99c0.73,0,1.27-0.1,1.62-0.19l0.13,2.09
		c-0.54,0.22-1.4,0.38-2.48,0.38c-1.3,0-2.35-0.41-3.02-1.17c-0.79-0.83-1.08-2.19-1.08-4v-8.38h-2.38v-2.13h2.38v-3.68
		L121.31,210.97z"/>
	<path class="st7" d="M136.84,230.75l-0.22-1.94h-0.09c-0.86,1.21-2.51,2.29-4.7,2.29c-3.11,0-4.7-2.19-4.7-4.41
		c0-3.71,3.3-5.75,9.24-5.71v-0.32c0-1.27-0.35-3.56-3.49-3.56c-1.43,0-2.92,0.44-4,1.14l-0.63-1.84c1.27-0.83,3.11-1.37,5.05-1.37
		c4.7,0,5.84,3.21,5.84,6.29v5.75c0,1.33,0.06,2.63,0.25,3.68H136.84z M129.67,212.74c-0.06-2.06,0.8-3.3,2.16-3.3
		c0.7,0,1.24,0.28,1.97,0.7c0.51,0.28,0.95,0.54,1.33,0.54c0.51,0,0.8-0.29,0.89-1.37h1.46c0.06,2.13-0.67,3.21-2.16,3.21
		c-0.67,0-1.27-0.29-1.94-0.64c-0.63-0.38-0.98-0.57-1.36-0.57c-0.51,0-0.76,0.54-0.83,1.43H129.67z M136.43,222.9
		c-3.05-0.06-6.51,0.48-6.51,3.46c0,1.81,1.21,2.67,2.63,2.67c2,0,3.27-1.27,3.71-2.57c0.1-0.28,0.16-0.6,0.16-0.89V222.9z"/>
	<path class="st7" d="M156.98,222.94c0,5.69-3.94,8.16-7.65,8.16c-4.16,0-7.36-3.05-7.36-7.91c0-5.15,3.37-8.16,7.62-8.16
		C154,215.03,156.98,218.24,156.98,222.94z M144.79,223.09c0,3.37,1.94,5.91,4.67,5.91c2.67,0,4.67-2.51,4.67-5.97
		c0-2.6-1.3-5.91-4.6-5.91C146.22,217.12,144.79,220.17,144.79,223.09z"/>
	<path class="st7" d="M180.53,208.2v18.57c0,1.37,0.03,2.92,0.13,3.97h-2.51l-0.13-2.67h-0.06c-0.86,1.72-2.73,3.02-5.24,3.02
		c-3.71,0-6.57-3.14-6.57-7.81c-0.03-5.11,3.14-8.25,6.89-8.25c2.35,0,3.94,1.11,4.64,2.35h0.06v-9.18H180.53z M177.74,221.63
		c0-0.35-0.03-0.83-0.13-1.17c-0.41-1.78-1.94-3.24-4.03-3.24c-2.89,0-4.6,2.54-4.6,5.94c0,3.11,1.52,5.68,4.54,5.68
		c1.87,0,3.59-1.24,4.1-3.33c0.1-0.38,0.13-0.76,0.13-1.21V221.63z"/>
	<path class="st7" d="M186.32,223.57c0.06,3.78,2.48,5.34,5.27,5.34c2,0,3.21-0.35,4.26-0.79l0.48,2c-0.98,0.44-2.67,0.95-5.11,0.95
		c-4.73,0-7.56-3.11-7.56-7.75c0-4.64,2.73-8.29,7.21-8.29c5.02,0,6.35,4.41,6.35,7.24c0,0.57-0.06,1.02-0.1,1.3H186.32z
		 M194.51,221.57c0.03-1.78-0.73-4.54-3.87-4.54c-2.83,0-4.06,2.6-4.29,4.54H194.51z"/>
	<path class="st7" d="M207.52,209.63c1.39-0.29,3.4-0.45,5.3-0.45c2.95,0,4.86,0.54,6.19,1.75c1.08,0.95,1.68,2.41,1.68,4.06
		c0,2.82-1.78,4.7-4.03,5.46v0.09c1.65,0.57,2.63,2.1,3.14,4.32c0.7,2.98,1.21,5.05,1.65,5.87h-2.86c-0.35-0.6-0.83-2.45-1.43-5.11
		c-0.63-2.95-1.78-4.06-4.29-4.16h-2.6v9.27h-2.76V209.63z M210.28,219.38h2.83c2.95,0,4.82-1.62,4.82-4.06c0-2.76-2-3.97-4.92-4
		c-1.33,0-2.28,0.13-2.73,0.25V219.38z"/>
	<path class="st7" d="M225.18,223.57c0.06,3.78,2.48,5.34,5.27,5.34c2,0,3.21-0.35,4.26-0.79l0.48,2c-0.98,0.44-2.67,0.95-5.11,0.95
		c-4.73,0-7.56-3.11-7.56-7.75c0-4.64,2.73-8.29,7.21-8.29c5.02,0,6.35,4.41,6.35,7.24c0,0.57-0.06,1.02-0.1,1.3H225.18z
		 M233.38,221.57c0.03-1.78-0.73-4.54-3.87-4.54c-2.83,0-4.06,2.6-4.29,4.54H233.38z"/>
	<path class="st7" d="M249.9,230.17c-0.73,0.38-2.35,0.89-4.41,0.89c-4.64,0-7.65-3.14-7.65-7.84c0-4.73,3.24-8.16,8.25-8.16
		c1.65,0,3.11,0.41,3.87,0.79l-0.63,2.16c-0.67-0.38-1.72-0.73-3.24-0.73c-3.52,0-5.43,2.6-5.43,5.81c0,3.56,2.29,5.75,5.34,5.75
		c1.59,0,2.63-0.41,3.43-0.76L249.9,230.17z"/>
	<path class="st7" d="M265.59,226.56c0,1.59,0.03,2.98,0.13,4.19h-2.48l-0.16-2.51h-0.06c-0.73,1.24-2.35,2.86-5.08,2.86
		c-2.41,0-5.3-1.33-5.3-6.73v-8.99h2.79v8.51c0,2.92,0.89,4.89,3.43,4.89c1.87,0,3.17-1.3,3.68-2.54c0.16-0.41,0.26-0.92,0.26-1.43
		v-9.43h2.79V226.56z"/>
	<path class="st7" d="M269.99,220.17c0-1.81-0.03-3.37-0.13-4.79h2.45l0.09,3.02h0.13c0.7-2.06,2.38-3.37,4.26-3.37
		c0.32,0,0.54,0.03,0.8,0.09v2.64c-0.29-0.06-0.57-0.1-0.95-0.1c-1.97,0-3.37,1.49-3.75,3.59c-0.06,0.38-0.13,0.83-0.13,1.3v8.19
		h-2.76V220.17z"/>
	<path class="st7" d="M279.36,227.89c0.83,0.54,2.28,1.11,3.68,1.11c2.03,0,2.98-1.02,2.98-2.28c0-1.33-0.79-2.06-2.86-2.82
		c-2.76-0.99-4.06-2.51-4.06-4.35c0-2.48,2-4.51,5.3-4.51c1.56,0,2.92,0.44,3.78,0.95l-0.7,2.03c-0.61-0.38-1.72-0.89-3.15-0.89
		c-1.65,0-2.57,0.95-2.57,2.1c0,1.27,0.92,1.84,2.92,2.6c2.67,1.02,4.03,2.35,4.03,4.63c0,2.7-2.09,4.6-5.75,4.6
		c-1.68,0-3.24-0.41-4.32-1.05L279.36,227.89z"/>
	<path class="st7" d="M305.63,222.94c0,5.69-3.94,8.16-7.65,8.16c-4.16,0-7.36-3.05-7.36-7.91c0-5.15,3.37-8.16,7.62-8.16
		C302.64,215.03,305.63,218.24,305.63,222.94z M293.43,223.09c0,3.37,1.94,5.91,4.67,5.91c2.67,0,4.67-2.51,4.67-5.97
		c0-2.6-1.3-5.91-4.6-5.91C294.86,217.12,293.43,220.17,293.43,223.09z"/>
	<path class="st7" d="M308.12,227.89c0.83,0.54,2.28,1.11,3.68,1.11c2.03,0,2.98-1.02,2.98-2.28c0-1.33-0.79-2.06-2.86-2.82
		c-2.76-0.99-4.06-2.51-4.06-4.35c0-2.48,2-4.51,5.3-4.51c1.56,0,2.92,0.44,3.78,0.95l-0.7,2.03c-0.61-0.38-1.72-0.89-3.15-0.89
		c-1.65,0-2.57,0.95-2.57,2.1c0,1.27,0.92,1.84,2.92,2.6c2.67,1.02,4.03,2.35,4.03,4.63c0,2.7-2.09,4.6-5.75,4.6
		c-1.68,0-3.24-0.41-4.32-1.05L308.12,227.89z"/>
</g>
</svg>
